  0
SECTION
  2
HEADER
  9
$ACADVER
  1
AC1014
  9
$ACADMAINTVER
 70
     9
  9
$DWGCODEPAGE
  3
ANSI_932
  9
$INSBASE
 10
0.0
 20
0.0
 30
0.0
  9
$EXTMIN
 10
1.000000000000000E+20
 20
1.000000000000000E+20
 30
1.000000000000000E+20
  9
$EXTMAX
 10
-1.000000000000000E+20
 20
-1.000000000000000E+20
 30
-1.000000000000000E+20
  9
$LIMMIN
 10
0.0
 20
0.0
  9
$LIMMAX
 10
12.0
 20
9.0
  9
$ORTHOMODE
 70
     0
  9
$REGENMODE
 70
     1
  9
$FILLMODE
 70
     1
  9
$QTEXTMODE
 70
     0
  9
$MIRRTEXT
 70
     1
  9
$DRAGMODE
 70
     2
  9
$LTSCALE
 40
1.0
  9
$OSMODE
 70
    37
  9
$ATTMODE
 70
     1
  9
$TEXTSIZE
 40
0.2
  9
$TRACEWID
 40
0.05
  9
$TEXTSTYLE
  7
STANDARD
  9
$CLAYER
  8
0
  9
$CELTYPE
  6
BYLAYER
  9
$CECOLOR
 62
   256
  9
$CELTSCALE
 40
1.0
  9
$DELOBJ
 70
     1
  9
$DISPSILH
 70
     0
  9
$DIMSCALE
 40
1.0
  9
$DIMASZ
 40
0.18
  9
$DIMEXO
 40
0.0625
  9
$DIMDLI
 40
0.38
  9
$DIMRND
 40
0.0
  9
$DIMDLE
 40
0.0
  9
$DIMEXE
 40
0.18
  9
$DIMTP
 40
0.0
  9
$DIMTM
 40
0.0
  9
$DIMTXT
 40
0.18
  9
$DIMCEN
 40
0.09
  9
$DIMTSZ
 40
0.0
  9
$DIMTOL
 70
     0
  9
$DIMLIM
 70
     0
  9
$DIMTIH
 70
     1
  9
$DIMTOH
 70
     1
  9
$DIMSE1
 70
     0
  9
$DIMSE2
 70
     0
  9
$DIMTAD
 70
     0
  9
$DIMZIN
 70
     0
  9
$DIMBLK
  1

  9
$DIMASO
 70
     1
  9
$DIMSHO
 70
     1
  9
$DIMPOST
  1

  9
$DIMAPOST
  1

  9
$DIMALT
 70
     0
  9
$DIMALTD
 70
     2
  9
$DIMALTF
 40
25.4
  9
$DIMLFAC
 40
1.0
  9
$DIMTOFL
 70
     0
  9
$DIMTVP
 40
0.0
  9
$DIMTIX
 70
     0
  9
$DIMSOXD
 70
     0
  9
$DIMSAH
 70
     0
  9
$DIMBLK1
  1

  9
$DIMBLK2
  1

  9
$DIMSTYLE
  2
STANDARD
  9
$DIMCLRD
 70
     0
  9
$DIMCLRE
 70
     0
  9
$DIMCLRT
 70
     0
  9
$DIMTFAC
 40
1.0
  9
$DIMGAP
 40
0.09
  9
$DIMJUST
 70
     0
  9
$DIMSD1
 70
     0
  9
$DIMSD2
 70
     0
  9
$DIMTOLJ
 70
     1
  9
$DIMTZIN
 70
     0
  9
$DIMALTZ
 70
     0
  9
$DIMALTTZ
 70
     0
  9
$DIMFIT
 70
     3
  9
$DIMUPT
 70
     0
  9
$DIMUNIT
 70
     2
  9
$DIMDEC
 70
     4
  9
$DIMTDEC
 70
     4
  9
$DIMALTU
 70
     2
  9
$DIMALTTD
 70
     2
  9
$DIMTXSTY
  7
STANDARD
  9
$DIMAUNIT
 70
     0
  9
$LUNITS
 70
     2
  9
$LUPREC
 70
     4
  9
$SKETCHINC
 40
0.1
  9
$FILLETRAD
 40
0.5
  9
$AUNITS
 70
     0
  9
$AUPREC
 70
     0
  9
$MENU
  1
.
  9
$ELEVATION
 40
0.0
  9
$PELEVATION
 40
0.0
  9
$THICKNESS
 40
0.0
  9
$LIMCHECK
 70
     0
  9
$CHAMFERA
 40
0.5
  9
$CHAMFERB
 40
0.5
  9
$CHAMFERC
 40
1.0
  9
$CHAMFERD
 40
0.0
  9
$SKPOLY
 70
     0
  9
$TDCREATE
 40
2458913.565983796
  9
$TDUPDATE
 40
2458913.565983808
  9
$TDINDWG
 40
0.0000000116
  9
$TDUSRTIMER
 40
0.0000000116
  9
$USRTIMER
 70
     1
  9
$ANGBASE
 50
0.0
  9
$ANGDIR
 70
     0
  9
$PDMODE
 70
     0
  9
$PDSIZE
 40
0.0
  9
$PLINEWID
 40
0.0
  9
$COORDS
 70
     1
  9
$SPLFRAME
 70
     0
  9
$SPLINETYPE
 70
     6
  9
$SPLINESEGS
 70
     8
  9
$ATTDIA
 70
     0
  9
$ATTREQ
 70
     1
  9
$HANDLING
 70
     1
  9
$HANDSEED
  5
DE
  9
$SURFTAB1
 70
     6
  9
$SURFTAB2
 70
     6
  9
$SURFTYPE
 70
     6
  9
$SURFU
 70
     6
  9
$SURFV
 70
     6
  9
$UCSNAME
  2

  9
$UCSORG
 10
0.0
 20
0.0
 30
0.0
  9
$UCSXDIR
 10
1.0
 20
0.0
 30
0.0
  9
$UCSYDIR
 10
0.0
 20
1.0
 30
0.0
  9
$PUCSNAME
  2

  9
$PUCSORG
 10
0.0
 20
0.0
 30
0.0
  9
$PUCSXDIR
 10
1.0
 20
0.0
 30
0.0
  9
$PUCSYDIR
 10
0.0
 20
1.0
 30
0.0
  9
$USERI1
 70
     0
  9
$USERI2
 70
     0
  9
$USERI3
 70
     0
  9
$USERI4
 70
     0
  9
$USERI5
 70
     0
  9
$USERR1
 40
0.0
  9
$USERR2
 40
0.0
  9
$USERR3
 40
0.0
  9
$USERR4
 40
0.0
  9
$USERR5
 40
0.0
  9
$WORLDVIEW
 70
     1
  9
$SHADEDGE
 70
     3
  9
$SHADEDIF
 70
    70
  9
$TILEMODE
 70
     1
  9
$MAXACTVP
 70
    64
  9
$PINSBASE
 10
0.0
 20
0.0
 30
0.0
  9
$PLIMCHECK
 70
     0
  9
$PEXTMIN
 10
1.000000000000000E+20
 20
1.000000000000000E+20
 30
1.000000000000000E+20
  9
$PEXTMAX
 10
-1.000000000000000E+20
 20
-1.000000000000000E+20
 30
-1.000000000000000E+20
  9
$PLIMMIN
 10
0.0
 20
0.0
  9
$PLIMMAX
 10
12.0
 20
9.0
  9
$UNITMODE
 70
     0
  9
$VISRETAIN
 70
     1
  9
$PLINEGEN
 70
     0
  9
$PSLTSCALE
 70
     1
  9
$TREEDEPTH
 70
  3020
  9
$PICKSTYLE
 70
     1
  9
$CMLSTYLE
  2
STANDARD
  9
$CMLJUST
 70
     0
  9
$CMLSCALE
 40
1.0
  9
$PROXYGRAPHICS
 70
     1
  9
$MEASUREMENT
 70
     0
  0
ENDSEC
  0
SECTION
  2
CLASSES
  0
CLASS
  1
ACDBDICTIONARYWDFLT
  2
AcDbDictionaryWithDefault
  3
ObjectDBX Classes
 90
        0
280
     0
281
     0
  0
CLASS
  1
VISUALSTYLE
  2
AcDbVisualStyle
  3
ObjectDBX Classes
 90
     4095
280
     0
281
     0
  0
CLASS
  1
XRECORD
  2
AcDbXrecord
  3
AutoCAD 2000
 90
        0
280
     0
281
     0
  0
CLASS
  1
LWPOLYLINE
  2
AcDbPolyline
  3
AutoCAD 2000
 90
        0
280
     0
281
     1
  0
CLASS
  1
HATCH
  2
AcDbHatch
  3
AutoCAD 2000
 90
        0
280
     0
281
     1
  0
CLASS
  1
ACDBPLACEHOLDER
  2
AcDbPlaceHolder
  3
ObjectDBX Classes
 90
        0
280
     0
281
     0
  0
CLASS
  1
LAYOUT
  2
AcDbLayout
  3
ObjectDBX Classes
 90
        0
280
     0
281
     0
  0
ENDSEC
  0
SECTION
  2
TABLES
  0
TABLE
  2
VPORT
  5
8
330
0
100
AcDbSymbolTable
 70
     1
  0
VPORT
  5
29
330
8
100
AcDbSymbolTableRecord
100
AcDbViewportTableRecord
  2
*ACTIVE
 70
     0
 10
0.0
 20
0.0
 11
1.0
 21
1.0
 12
0.0
 22
0.0
 13
0.0
 23
0.0
 14
0.5
 24
0.5
 15
0.5
 25
0.5
 16
0.0
 26
0.0
 36
1.0
 17
149.9992851730037
 27
-149.9992851730037
 37
0.0
 40
299.9985703460073
 41
1.0
 42
50.0
 43
0.0
 44
0.0
 50
0.0
 51
0.0
 71
     0
 72
   100
 73
     1
 74
     3
 75
     0
 76
     0
 77
     0
 78
     0
  0
ENDTAB
  0
TABLE
  2
LTYPE
  5
5
330
0
100
AcDbSymbolTable
 70
     1
  0
LTYPE
  5
14
330
5
100
AcDbSymbolTableRecord
100
AcDbLinetypeTableRecord
  2
BYBLOCK
 70
     0
  3

 72
    65
 73
     0
 40
0.0
  0
LTYPE
  5
15
330
5
100
AcDbSymbolTableRecord
100
AcDbLinetypeTableRecord
  2
BYLAYER
 70
     0
  3

 72
    65
 73
     0
 40
0.0
  0
LTYPE
  5
16
330
5
100
AcDbSymbolTableRecord
100
AcDbLinetypeTableRecord
  2
CONTINUOUS
 70
     0
  3
Solid line
 72
    65
 73
     0
 40
0.0
  0
ENDTAB
  0
TABLE
  2
LAYER
  5
2
330
0
100
AcDbSymbolTable
 70
     2
  0
LAYER
  5
10
330
2
100
AcDbSymbolTableRecord
100
AcDbLayerTableRecord
  2
0
 70
     0
 62
     7
  6
CONTINUOUS
  0
LAYER
  5
3B
330
2
100
AcDbSymbolTableRecord
100
AcDbLayerTableRecord
  2
LAYER_1
 70
     0
 62
     7
  6
CONTINUOUS
  0
ENDTAB
  0
TABLE
  2
STYLE
  5
3
330
0
100
AcDbSymbolTable
 70
     1
  0
STYLE
  5
11
330
3
100
AcDbSymbolTableRecord
100
AcDbTextStyleTableRecord
  2
STANDARD
 70
     0
 40
0.0
 41
1.0
 50
0.0
 71
     0
 42
0.2
  3
txt
  4

  0
ENDTAB
  0
TABLE
  2
VIEW
  5
6
330
0
100
AcDbSymbolTable
 70
     0
  0
ENDTAB
  0
TABLE
  2
UCS
  5
7
330
0
100
AcDbSymbolTable
 70
     0
  0
ENDTAB
  0
TABLE
  2
APPID
  5
9
330
0
100
AcDbSymbolTable
 70
     1
  0
APPID
  5
12
330
9
100
AcDbSymbolTableRecord
100
AcDbRegAppTableRecord
  2
ACAD
 70
     0
  0
ENDTAB
  0
TABLE
  2
DIMSTYLE
  5
A
330
0
100
AcDbSymbolTable
 70
     1
  0
DIMSTYLE
105
27
330
A
100
AcDbSymbolTableRecord
100
AcDbDimStyleTableRecord
  2
STANDARD
 70
     0
  3

  4

  5

  6

  7

 40
1.0
 41
0.18
 42
0.0625
 43
0.38
 44
0.18
 45
0.0
 46
0.0
 47
0.0
 48
0.0
140
0.18
141
0.09
142
0.0
143
25.4
144
1.0
145
0.0
146
1.0
147
0.09
 71
     0
 72
     0
 73
     1
 74
     1
 75
     0
 76
     0
 77
     0
 78
     0
170
     0
171
     2
172
     0
173
     0
174
     0
175
     0
176
     0
177
     0
178
     0
270
     2
271
     4
272
     4
273
     2
274
     2
340
11
275
     0
280
     0
281
     0
282
     0
283
     1
284
     0
285
     0
286
     0
287
     3
288
     0
  0
ENDTAB
  0
TABLE
  2
BLOCK_RECORD
  5
1
330
0
100
AcDbSymbolTable
 70
    14
  0
BLOCK_RECORD
  5
1F
330
1
100
AcDbSymbolTableRecord
100
AcDbBlockTableRecord
  2
*MODEL_SPACE
  0
BLOCK_RECORD
  5
1B
330
1
100
AcDbSymbolTableRecord
100
AcDbBlockTableRecord
  2
*PAPER_SPACE
  0
BLOCK_RECORD
  5
82
330
1
100
AcDbSymbolTableRecord
100
AcDbBlockTableRecord
  2
BLOCK_2
  0
BLOCK_RECORD
  5
86
330
1
100
AcDbSymbolTableRecord
100
AcDbBlockTableRecord
  2
BLOCK_3
  0
BLOCK_RECORD
  5
8B
330
1
100
AcDbSymbolTableRecord
100
AcDbBlockTableRecord
  2
BLOCK_4
  0
BLOCK_RECORD
  5
8F
330
1
100
AcDbSymbolTableRecord
100
AcDbBlockTableRecord
  2
BLOCK_5
  0
BLOCK_RECORD
  5
94
330
1
100
AcDbSymbolTableRecord
100
AcDbBlockTableRecord
  2
BLOCK_6
  0
BLOCK_RECORD
  5
98
330
1
100
AcDbSymbolTableRecord
100
AcDbBlockTableRecord
  2
BLOCK_7
  0
BLOCK_RECORD
  5
9D
330
1
100
AcDbSymbolTableRecord
100
AcDbBlockTableRecord
  2
BLOCK_8
  0
BLOCK_RECORD
  5
A1
330
1
100
AcDbSymbolTableRecord
100
AcDbBlockTableRecord
  2
BLOCK_9
  0
BLOCK_RECORD
  5
A6
330
1
100
AcDbSymbolTableRecord
100
AcDbBlockTableRecord
  2
BLOCK_10
  0
BLOCK_RECORD
  5
AA
330
1
100
AcDbSymbolTableRecord
100
AcDbBlockTableRecord
  2
BLOCK_11
  0
BLOCK_RECORD
  5
AE
330
1
100
AcDbSymbolTableRecord
100
AcDbBlockTableRecord
  2
BLOCK_12
  0
BLOCK_RECORD
  5
B3
330
1
100
AcDbSymbolTableRecord
100
AcDbBlockTableRecord
  2
BLOCK_13
  0
BLOCK_RECORD
  5
B7
330
1
100
AcDbSymbolTableRecord
100
AcDbBlockTableRecord
  2
BLOCK_14
  0
ENDTAB
  0
ENDSEC
  0
SECTION
  2
BLOCKS
  0
BLOCK
  5
20
330
1F
100
AcDbEntity
  8
0
100
AcDbBlockBegin
  2
*MODEL_SPACE
 70
     0
 71
     0
 10
0.0
 20
0.0
 30
0.0
  3
*MODEL_SPACE
  1

  0
ENDBLK
  5
21
330
1F
100
AcDbEntity
  8
0
100
AcDbBlockEnd
  0
BLOCK
  5
1C
330
1B
100
AcDbEntity
 67
     1
  8
0
100
AcDbBlockBegin
  2
*PAPER_SPACE
 70
     0
 71
     0
 10
0.0
 20
0.0
 30
0.0
  3
*PAPER_SPACE
  1

  0
ENDBLK
  5
1D
330
1B
100
AcDbEntity
 67
     1
  8
0
100
AcDbBlockEnd
  0
BLOCK
  5
84
330
82
100
AcDbEntity
  8
0
100
AcDbBlockBegin
  2
BLOCK_2
 70
     0
 71
     0
 10
0.0
 20
0.0
 30
0.0
  3
BLOCK_2
  1

  0
INSERT
  5
87
330
82
100
AcDbEntity
  8
LAYER_1
100
AcDbBlockReference
  2
BLOCK_3
 10
0.0
 20
0.0
 30
0.0
  0
ENDBLK
  5
85
330
82
100
AcDbEntity
  8
0
100
AcDbBlockEnd
  0
BLOCK
  5
88
330
86
100
AcDbEntity
  8
0
100
AcDbBlockBegin
  2
BLOCK_3
 70
     0
 71
     0
 10
0.0
 20
0.0
 30
0.0
  3
BLOCK_3
  1

  0
SPLINE
  5
8A
330
86
100
AcDbEntity
  8
LAYER_1
 62
    83
100
AcDbSpline
210
0.0
220
0.0
230
1.0
 70
    11
 71
     3
 72
    29
 73
    25
 74
     0
 42
0.0000000001
 43
0.0000000001
 40
0.0
 40
0.0
 40
0.0
 40
0.0
 40
1.0
 40
1.0
 40
1.0
 40
2.0
 40
2.0
 40
2.0
 40
3.0
 40
3.0
 40
3.0
 40
4.0
 40
4.0
 40
4.0
 40
5.0
 40
5.0
 40
5.0
 40
6.0
 40
6.0
 40
6.0
 40
7.0
 40
7.0
 40
7.0
 40
8.0
 40
8.0
 40
8.0
 40
8.0
 10
77.84468856560828
 20
-34.03737113949413
 30
0.0
 10
77.84468856560828
 20
-34.03737113949413
 30
0.0
 10
77.84468856560828
 20
-34.03737113949413
 30
0.0
 10
77.84468856560828
 20
-34.03737113949413
 30
0.0
 10
77.1694498504993
 20
-34.03737113949413
 30
0.0
 10
76.62701956634672
 20
-33.47289224423594
 30
0.0
 10
76.62701956634672
 20
-32.80885008945404
 30
0.0
 10
76.62701956634672
 20
-32.80885008945404
 30
0.0
 10
76.62701956634672
 20
-32.80885008945404
 30
0.0
 10
76.62701956634672
 20
-32.80885008945404
 30
0.0
 10
76.62701956634672
 20
-32.15565998545067
 30
0.0
 10
77.1694498504993
 20
-31.59135334496674
 30
0.0
 10
77.84468856560828
 20
-31.59135334496674
 30
0.0
 10
77.84468856560828
 20
-31.59135334496674
 30
0.0
 10
77.84468856560828
 20
-31.59135334496674
 30
0.0
 10
77.84468856560828
 20
-31.59135334496674
 30
0.0
 10
78.49753416006313
 20
-31.59135334496674
 30
0.0
 10
79.03996444421571
 20
-32.15565998545067
 30
0.0
 10
79.03996444421571
 20
-32.80885008945404
 30
0.0
 10
79.03996444421571
 20
-32.80885008945404
 30
0.0
 10
79.03996444421571
 20
-32.80885008945404
 30
0.0
 10
79.03996444421571
 20
-32.80885008945404
 30
0.0
 10
79.03996444421571
 20
-33.47289224423594
 30
0.0
 10
78.49753416006313
 20
-34.03737113949413
 30
0.0
 10
77.84468856560828
 20
-34.03737113949413
 30
0.0
  0
ENDBLK
  5
89
330
86
100
AcDbEntity
  8
0
100
AcDbBlockEnd
  0
BLOCK
  5
8D
330
8B
100
AcDbEntity
  8
0
100
AcDbBlockBegin
  2
BLOCK_4
 70
     0
 71
     0
 10
0.0
 20
0.0
 30
0.0
  3
BLOCK_4
  1

  0
INSERT
  5
90
330
8B
100
AcDbEntity
  8
LAYER_1
100
AcDbBlockReference
  2
BLOCK_5
 10
0.0
 20
0.0
 30
0.0
  0
ENDBLK
  5
8E
330
8B
100
AcDbEntity
  8
0
100
AcDbBlockEnd
  0
BLOCK
  5
91
330
8F
100
AcDbEntity
  8
0
100
AcDbBlockBegin
  2
BLOCK_5
 70
     0
 71
     0
 10
0.0
 20
0.0
 30
0.0
  3
BLOCK_5
  1

  0
SPLINE
  5
93
330
8F
100
AcDbEntity
  8
LAYER_1
 62
    83
100
AcDbSpline
210
0.0
220
0.0
230
1.0
 70
    11
 71
     3
 72
    29
 73
    25
 74
     0
 42
0.0000000001
 43
0.0000000001
 40
0.0
 40
0.0
 40
0.0
 40
0.0
 40
1.0
 40
1.0
 40
1.0
 40
2.0
 40
2.0
 40
2.0
 40
3.0
 40
3.0
 40
3.0
 40
4.0
 40
4.0
 40
4.0
 40
5.0
 40
5.0
 40
5.0
 40
6.0
 40
6.0
 40
6.0
 40
7.0
 40
7.0
 40
7.0
 40
8.0
 40
8.0
 40
8.0
 40
8.0
 10
55.60745848219189
 20
-33.97587618508242
 30
0.0
 10
55.60745848219189
 20
-33.97587618508242
 30
0.0
 10
55.60745848219189
 20
-33.97587618508242
 30
0.0
 10
55.60745848219189
 20
-33.97587618508242
 30
0.0
 10
54.93221976708292
 20
-33.97587618508242
 30
0.0
 10
54.38978948293033
 20
-33.41139728982424
 30
0.0
 10
54.38978948293033
 20
-32.74735513504233
 30
0.0
 10
54.38978948293033
 20
-32.74735513504233
 30
0.0
 10
54.38978948293033
 20
-32.74735513504233
 30
0.0
 10
54.38978948293033
 20
-32.74735513504233
 30
0.0
 10
54.38978948293033
 20
-32.09416503103896
 30
0.0
 10
54.93221976708292
 20
-31.52985839055504
 30
0.0
 10
55.60745848219189
 20
-31.52985839055504
 30
0.0
 10
55.60745848219189
 20
-31.52985839055504
 30
0.0
 10
55.60745848219189
 20
-31.52985839055504
 30
0.0
 10
55.60745848219189
 20
-31.52985839055504
 30
0.0
 10
56.26030407664673
 20
-31.52985839055504
 30
0.0
 10
56.80273436079932
 20
-32.09416503103896
 30
0.0
 10
56.80273436079932
 20
-32.74735513504233
 30
0.0
 10
56.80273436079932
 20
-32.74735513504233
 30
0.0
 10
56.80273436079932
 20
-32.74735513504233
 30
0.0
 10
56.80273436079932
 20
-32.74735513504233
 30
0.0
 10
56.80273436079932
 20
-33.41139728982424
 30
0.0
 10
56.26030407664673
 20
-33.97587618508242
 30
0.0
 10
55.60745848219189
 20
-33.97587618508242
 30
0.0
  0
ENDBLK
  5
92
330
8F
100
AcDbEntity
  8
0
100
AcDbBlockEnd
  0
BLOCK
  5
96
330
94
100
AcDbEntity
  8
0
100
AcDbBlockBegin
  2
BLOCK_6
 70
     0
 71
     0
 10
0.0
 20
0.0
 30
0.0
  3
BLOCK_6
  1

  0
INSERT
  5
99
330
94
100
AcDbEntity
  8
LAYER_1
100
AcDbBlockReference
  2
BLOCK_7
 10
0.0
 20
0.0
 30
0.0
  0
ENDBLK
  5
97
330
94
100
AcDbEntity
  8
0
100
AcDbBlockEnd
  0
BLOCK
  5
9A
330
98
100
AcDbEntity
  8
0
100
AcDbBlockBegin
  2
BLOCK_7
 70
     0
 71
     0
 10
0.0
 20
0.0
 30
0.0
  3
BLOCK_7
  1

  0
SPLINE
  5
9C
330
98
100
AcDbEntity
  8
LAYER_1
 62
    83
100
AcDbSpline
210
0.0
220
0.0
230
1.0
 70
    11
 71
     3
 72
    29
 73
    25
 74
     0
 42
0.0000000001
 43
0.0000000001
 40
0.0
 40
0.0
 40
0.0
 40
0.0
 40
1.0
 40
1.0
 40
1.0
 40
2.0
 40
2.0
 40
2.0
 40
3.0
 40
3.0
 40
3.0
 40
4.0
 40
4.0
 40
4.0
 40
5.0
 40
5.0
 40
5.0
 40
6.0
 40
6.0
 40
6.0
 40
7.0
 40
7.0
 40
7.0
 40
8.0
 40
8.0
 40
8.0
 40
8.0
 10
55.53735078906706
 20
-90.33092038757353
 30
0.0
 10
55.53735078906706
 20
-90.33092038757353
 30
0.0
 10
55.53735078906706
 20
-90.33092038757353
 30
0.0
 10
55.53735078906706
 20
-90.33092038757353
 30
0.0
 10
54.86211207395809
 20
-90.33092038757353
 30
0.0
 10
54.3196817898055
 20
-89.76644149231534
 30
0.0
 10
54.3196817898055
 20
-89.10239933753343
 30
0.0
 10
54.3196817898055
 20
-89.10239933753343
 30
0.0
 10
54.3196817898055
 20
-89.10239933753343
 30
0.0
 10
54.3196817898055
 20
-89.10239933753343
 30
0.0
 10
54.3196817898055
 20
-88.44920923353007
 30
0.0
 10
54.86211207395809
 20
-87.88490259304614
 30
0.0
 10
55.53735078906706
 20
-87.88490259304614
 30
0.0
 10
55.53735078906706
 20
-87.88490259304614
 30
0.0
 10
55.53735078906706
 20
-87.88490259304614
 30
0.0
 10
55.53735078906706
 20
-87.88490259304614
 30
0.0
 10
56.1901963835219
 20
-87.88490259304614
 30
0.0
 10
56.73262666767449
 20
-88.44920923353007
 30
0.0
 10
56.73262666767449
 20
-89.10239933753343
 30
0.0
 10
56.73262666767449
 20
-89.10239933753343
 30
0.0
 10
56.73262666767449
 20
-89.10239933753343
 30
0.0
 10
56.73262666767449
 20
-89.10239933753343
 30
0.0
 10
56.73262666767449
 20
-89.76644149231534
 30
0.0
 10
56.1901963835219
 20
-90.33092038757353
 30
0.0
 10
55.53735078906706
 20
-90.33092038757353
 30
0.0
  0
ENDBLK
  5
9B
330
98
100
AcDbEntity
  8
0
100
AcDbBlockEnd
  0
BLOCK
  5
9F
330
9D
100
AcDbEntity
  8
0
100
AcDbBlockBegin
  2
BLOCK_8
 70
     0
 71
     0
 10
0.0
 20
0.0
 30
0.0
  3
BLOCK_8
  1

  0
INSERT
  5
A2
330
9D
100
AcDbEntity
  8
LAYER_1
100
AcDbBlockReference
  2
BLOCK_9
 10
0.0
 20
0.0
 30
0.0
  0
ENDBLK
  5
A0
330
9D
100
AcDbEntity
  8
0
100
AcDbBlockEnd
  0
BLOCK
  5
A3
330
A1
100
AcDbEntity
  8
0
100
AcDbBlockBegin
  2
BLOCK_9
 70
     0
 71
     0
 10
0.0
 20
0.0
 30
0.0
  3
BLOCK_9
  1

  0
SPLINE
  5
A5
330
A1
100
AcDbEntity
  8
LAYER_1
 62
    83
100
AcDbSpline
210
0.0
220
0.0
230
1.0
 70
    11
 71
     3
 72
    29
 73
    25
 74
     0
 42
0.0000000001
 43
0.0000000001
 40
0.0
 40
0.0
 40
0.0
 40
0.0
 40
1.0
 40
1.0
 40
1.0
 40
2.0
 40
2.0
 40
2.0
 40
3.0
 40
3.0
 40
3.0
 40
4.0
 40
4.0
 40
4.0
 40
5.0
 40
5.0
 40
5.0
 40
6.0
 40
6.0
 40
6.0
 40
7.0
 40
7.0
 40
7.0
 40
8.0
 40
8.0
 40
8.0
 40
8.0
 10
77.74323050356767
 20
-90.40964081941148
 30
0.0
 10
77.74323050356767
 20
-90.40964081941148
 30
0.0
 10
77.74323050356767
 20
-90.40964081941148
 30
0.0
 10
77.74323050356767
 20
-90.40964081941148
 30
0.0
 10
77.0679917884587
 20
-90.40964081941148
 30
0.0
 10
76.52556150430611
 20
-89.8451619241533
 30
0.0
 10
76.52556150430611
 20
-89.18111976937139
 30
0.0
 10
76.52556150430611
 20
-89.18111976937139
 30
0.0
 10
76.52556150430611
 20
-89.18111976937139
 30
0.0
 10
76.52556150430611
 20
-89.18111976937139
 30
0.0
 10
76.52556150430611
 20
-88.52792966536802
 30
0.0
 10
77.0679917884587
 20
-87.9636230248841
 30
0.0
 10
77.74323050356767
 20
-87.9636230248841
 30
0.0
 10
77.74323050356767
 20
-87.9636230248841
 30
0.0
 10
77.74323050356767
 20
-87.9636230248841
 30
0.0
 10
77.74323050356767
 20
-87.9636230248841
 30
0.0
 10
78.39607609802252
 20
-87.9636230248841
 30
0.0
 10
78.9385063821751
 20
-88.52792966536802
 30
0.0
 10
78.9385063821751
 20
-89.18111976937139
 30
0.0
 10
78.9385063821751
 20
-89.18111976937139
 30
0.0
 10
78.9385063821751
 20
-89.18111976937139
 30
0.0
 10
78.9385063821751
 20
-89.18111976937139
 30
0.0
 10
78.9385063821751
 20
-89.8451619241533
 30
0.0
 10
78.39607609802252
 20
-90.40964081941148
 30
0.0
 10
77.74323050356767
 20
-90.40964081941148
 30
0.0
  0
ENDBLK
  5
A4
330
A1
100
AcDbEntity
  8
0
100
AcDbBlockEnd
  0
BLOCK
  5
A8
330
A6
100
AcDbEntity
  8
0
100
AcDbBlockBegin
  2
BLOCK_10
 70
     0
 71
     0
 10
0.0
 20
0.0
 30
0.0
  3
BLOCK_10
  1

  0
INSERT
  5
AB
330
A6
100
AcDbEntity
  8
LAYER_1
100
AcDbBlockReference
  2
BLOCK_11
 10
0.0
 20
0.0
 30
0.0
  0
ENDBLK
  5
A9
330
A6
100
AcDbEntity
  8
0
100
AcDbBlockEnd
  0
BLOCK
  5
AC
330
AA
100
AcDbEntity
  8
0
100
AcDbBlockBegin
  2
BLOCK_11
 70
     0
 71
     0
 10
0.0
 20
0.0
 30
0.0
  3
BLOCK_11
  1

  0
INSERT
  5
AF
330
AA
100
AcDbEntity
  8
LAYER_1
100
AcDbBlockReference
  2
BLOCK_12
 10
0.0
 20
0.0
 30
0.0
  0
ENDBLK
  5
AD
330
AA
100
AcDbEntity
  8
0
100
AcDbBlockEnd
  0
BLOCK
  5
B0
330
AE
100
AcDbEntity
  8
0
100
AcDbBlockBegin
  2
BLOCK_12
 70
     0
 71
     0
 10
0.0
 20
0.0
 30
0.0
  3
BLOCK_12
  1

  0
SPLINE
  5
B2
330
AE
100
AcDbEntity
  8
LAYER_1
 62
     7
100
AcDbSpline
210
0.0
220
0.0
230
1.0
 70
    11
 71
     3
 72
    29
 73
    25
 74
     0
 42
0.0000000001
 43
0.0000000001
 40
0.0
 40
0.0
 40
0.0
 40
0.0
 40
1.0
 40
1.0
 40
1.0
 40
2.0
 40
2.0
 40
2.0
 40
3.0
 40
3.0
 40
3.0
 40
4.0
 40
4.0
 40
4.0
 40
5.0
 40
5.0
 40
5.0
 40
6.0
 40
6.0
 40
6.0
 40
7.0
 40
7.0
 40
7.0
 40
8.0
 40
8.0
 40
8.0
 40
8.0
 10
29.16135524444577
 20
50.27651772831629
 30
0.0
 10
29.16135524444577
 20
50.27651772831629
 30
0.0
 10
29.16135524444577
 20
50.27651772831629
 30
0.0
 10
29.16135524444577
 20
50.27651772831629
 30
0.0
 10
28.4861165293368
 20
50.27651772831629
 30
0.0
 10
27.94368624518422
 20
50.84099662357448
 30
0.0
 10
27.94368624518422
 20
51.50503877835638
 30
0.0
 10
27.94368624518422
 20
51.50503877835638
 30
0.0
 10
27.94368624518422
 20
51.50503877835638
 30
0.0
 10
27.94368624518422
 20
51.50503877835638
 30
0.0
 10
27.94368624518422
 20
52.15822888235975
 30
0.0
 10
28.4861165293368
 20
52.72253552284367
 30
0.0
 10
29.16135524444577
 20
52.72253552284367
 30
0.0
 10
29.16135524444577
 20
52.72253552284367
 30
0.0
 10
29.16135524444577
 20
52.72253552284367
 30
0.0
 10
29.16135524444577
 20
52.72253552284367
 30
0.0
 10
29.81420083890062
 20
52.72253552284367
 30
0.0
 10
30.35663112305321
 20
52.15822888235975
 30
0.0
 10
30.35663112305321
 20
51.50503877835638
 30
0.0
 10
30.35663112305321
 20
51.50503877835638
 30
0.0
 10
30.35663112305321
 20
51.50503877835638
 30
0.0
 10
30.35663112305321
 20
51.50503877835638
 30
0.0
 10
30.35663112305321
 20
50.84099662357448
 30
0.0
 10
29.81420083890062
 20
50.27651772831629
 30
0.0
 10
29.16135524444577
 20
50.27651772831629
 30
0.0
  0
ENDBLK
  5
B1
330
AE
100
AcDbEntity
  8
0
100
AcDbBlockEnd
  0
BLOCK
  5
B5
330
B3
100
AcDbEntity
  8
0
100
AcDbBlockBegin
  2
BLOCK_13
 70
     0
 71
     0
 10
0.0
 20
0.0
 30
0.0
  3
BLOCK_13
  1

  0
INSERT
  5
B8
330
B3
100
AcDbEntity
  8
LAYER_1
100
AcDbBlockReference
  2
BLOCK_14
 10
0.0
 20
0.0
 30
0.0
  0
ENDBLK
  5
B6
330
B3
100
AcDbEntity
  8
0
100
AcDbBlockEnd
  0
BLOCK
  5
B9
330
B7
100
AcDbEntity
  8
0
100
AcDbBlockBegin
  2
BLOCK_14
 70
     0
 71
     0
 10
0.0
 20
0.0
 30
0.0
  3
BLOCK_14
  1

  0
SPLINE
  5
BB
330
B7
100
AcDbEntity
  8
LAYER_1
 62
     7
100
AcDbSpline
210
0.0
220
0.0
230
1.0
 70
    11
 71
     3
 72
    29
 73
    25
 74
     0
 42
0.0000000001
 43
0.0000000001
 40
0.0
 40
0.0
 40
0.0
 40
0.0
 40
1.0
 40
1.0
 40
1.0
 40
2.0
 40
2.0
 40
2.0
 40
3.0
 40
3.0
 40
3.0
 40
4.0
 40
4.0
 40
4.0
 40
5.0
 40
5.0
 40
5.0
 40
6.0
 40
6.0
 40
6.0
 40
7.0
 40
7.0
 40
7.0
 40
8.0
 40
8.0
 40
8.0
 40
8.0
 10
29.16135524444577
 20
50.27651772831629
 30
0.0
 10
29.16135524444577
 20
50.27651772831629
 30
0.0
 10
29.16135524444577
 20
50.27651772831629
 30
0.0
 10
29.16135524444577
 20
50.27651772831629
 30
0.0
 10
28.4861165293368
 20
50.27651772831629
 30
0.0
 10
27.94368624518422
 20
50.84099662357448
 30
0.0
 10
27.94368624518422
 20
51.50503877835638
 30
0.0
 10
27.94368624518422
 20
51.50503877835638
 30
0.0
 10
27.94368624518422
 20
51.50503877835638
 30
0.0
 10
27.94368624518422
 20
51.50503877835638
 30
0.0
 10
27.94368624518422
 20
52.15822888235975
 30
0.0
 10
28.4861165293368
 20
52.72253552284367
 30
0.0
 10
29.16135524444577
 20
52.72253552284367
 30
0.0
 10
29.16135524444577
 20
52.72253552284367
 30
0.0
 10
29.16135524444577
 20
52.72253552284367
 30
0.0
 10
29.16135524444577
 20
52.72253552284367
 30
0.0
 10
29.81420083890062
 20
52.72253552284367
 30
0.0
 10
30.35663112305321
 20
52.15822888235975
 30
0.0
 10
30.35663112305321
 20
51.50503877835638
 30
0.0
 10
30.35663112305321
 20
51.50503877835638
 30
0.0
 10
30.35663112305321
 20
51.50503877835638
 30
0.0
 10
30.35663112305321
 20
51.50503877835638
 30
0.0
 10
30.35663112305321
 20
50.84099662357448
 30
0.0
 10
29.81420083890062
 20
50.27651772831629
 30
0.0
 10
29.16135524444577
 20
50.27651772831629
 30
0.0
  0
ENDBLK
  5
BA
330
B7
100
AcDbEntity
  8
0
100
AcDbBlockEnd
  0
ENDSEC
  0
SECTION
  2
ENTITIES
  0
POLYLINE
  5
3C
330
1F
100
AcDbEntity
  8
LAYER_1
 62
    83
100
AcDb2dPolyline
 66
     1
 10
0.0
 20
0.0
 30
0.0
  0
VERTEX
  5
3D
330
3C
100
AcDbEntity
  8
LAYER_1
 62
    83
100
AcDbVertex
100
AcDb2dVertex
 10
36.92401664658497
 20
-15.53393554299152
 30
0.0
  0
VERTEX
  5
3E
330
3C
100
AcDbEntity
  8
LAYER_1
 62
    83
100
AcDbVertex
100
AcDb2dVertex
 10
58.87513154995136
 20
-15.53393554299152
 30
0.0
  0
VERTEX
  5
3F
330
3C
100
AcDbEntity
  8
LAYER_1
 62
    83
100
AcDbVertex
100
AcDb2dVertex
 10
58.87513154995136
 20
-18.54047037296905
 30
0.0
  0
VERTEX
  5
40
330
3C
100
AcDbEntity
  8
LAYER_1
 62
    83
100
AcDbVertex
100
AcDb2dVertex
 10
36.92401664658497
 20
-18.54047037296905
 30
0.0
  0
VERTEX
  5
41
330
3C
100
AcDbEntity
  8
LAYER_1
 62
    83
100
AcDbVertex
100
AcDb2dVertex
 10
36.92401664658497
 20
-15.53393554299152
 30
0.0
  0
SEQEND
  5
42
330
3C
100
AcDbEntity
  8
LAYER_1
  0
POLYLINE
  5
43
330
1F
100
AcDbEntity
  8
LAYER_1
 62
    83
100
AcDb2dPolyline
 66
     1
 10
0.0
 20
0.0
 30
0.0
  0
VERTEX
  5
44
330
43
100
AcDbEntity
  8
LAYER_1
 62
    83
100
AcDbVertex
100
AcDb2dVertex
 10
74.63230928038706
 20
-15.53393554299152
 30
0.0
  0
VERTEX
  5
45
330
43
100
AcDbEntity
  8
LAYER_1
 62
    83
100
AcDbVertex
100
AcDb2dVertex
 10
97.03610973051528
 20
-15.53393554299152
 30
0.0
  0
VERTEX
  5
46
330
43
100
AcDbEntity
  8
LAYER_1
 62
    83
100
AcDbVertex
100
AcDb2dVertex
 10
97.03610973051528
 20
-18.54047037296905
 30
0.0
  0
VERTEX
  5
47
330
43
100
AcDbEntity
  8
LAYER_1
 62
    83
100
AcDbVertex
100
AcDb2dVertex
 10
74.63230928038706
 20
-18.54047037296905
 30
0.0
  0
VERTEX
  5
48
330
43
100
AcDbEntity
  8
LAYER_1
 62
    83
100
AcDbVertex
100
AcDb2dVertex
 10
74.63230928038706
 20
-15.53393554299152
 30
0.0
  0
SEQEND
  5
49
330
43
100
AcDbEntity
  8
LAYER_1
  0
POLYLINE
  5
4A
330
1F
100
AcDbEntity
  8
LAYER_1
 62
    83
100
AcDb2dPolyline
 66
     1
 10
0.0
 20
0.0
 30
0.0
  0
VERTEX
  5
4B
330
4A
100
AcDbEntity
  8
LAYER_1
 62
    83
100
AcDbVertex
100
AcDb2dVertex
 10
67.56883000697933
 20
-11.41291232353566
 30
0.0
  0
VERTEX
  5
4C
330
4A
100
AcDbEntity
  8
LAYER_1
 62
    83
100
AcDbVertex
100
AcDb2dVertex
 10
68.715702294019
 20
-11.65992566982808
 30
0.0
  0
VERTEX
  5
4D
330
4A
100
AcDbEntity
  8
LAYER_1
 62
    83
100
AcDbVertex
100
AcDb2dVertex
 10
69.79436169045071
 20
-12.14086099956895
 30
0.0
  0
VERTEX
  5
4E
330
4A
100
AcDbEntity
  8
LAYER_1
 62
    83
100
AcDbVertex
100
AcDb2dVertex
 10
70.74520804437968
 20
-12.83160264436154
 30
0.0
  0
VERTEX
  5
4F
330
4A
100
AcDbEntity
  8
LAYER_1
 62
    83
100
AcDbVertex
100
AcDb2dVertex
 10
71.53275687230779
 20
-13.7135470885855
 30
0.0
  0
VERTEX
  5
50
330
4A
100
AcDbEntity
  8
LAYER_1
 62
    83
100
AcDbVertex
100
AcDb2dVertex
 10
72.11842310480026
 20
-14.73536240951061
 30
0.0
  0
VERTEX
  5
51
330
4A
100
AcDbEntity
  8
LAYER_1
 62
    83
100
AcDbVertex
100
AcDb2dVertex
 10
72.48188067849412
 20
-15.86087510454173
 30
0.0
  0
VERTEX
  5
52
330
4A
100
AcDbEntity
  8
LAYER_1
 62
    83
100
AcDbVertex
100
AcDb2dVertex
 10
72.60555960641459
 20
-17.03703070320602
 30
0.0
  0
VERTEX
  5
53
330
4A
100
AcDbEntity
  8
LAYER_1
 62
    83
100
AcDbVertex
100
AcDb2dVertex
 10
72.48188067849412
 20
-18.21180826367621
 30
0.0
  0
VERTEX
  5
54
330
4A
100
AcDbEntity
  8
LAYER_1
 62
    83
100
AcDbVertex
100
AcDb2dVertex
 10
72.11842310480026
 20
-19.33663193961029
 30
0.0
  0
VERTEX
  5
55
330
4A
100
AcDbEntity
  8
LAYER_1
 62
    83
100
AcDbVertex
100
AcDb2dVertex
 10
71.53275687230779
 20
-20.36189235602064
 30
0.0
  0
VERTEX
  5
56
330
4A
100
AcDbEntity
  8
LAYER_1
 62
    83
100
AcDbVertex
100
AcDb2dVertex
 10
70.74520804437968
 20
-21.24039170475935
 30
0.0
  0
VERTEX
  5
57
330
4A
100
AcDbEntity
  8
LAYER_1
 62
    83
100
AcDbVertex
100
AcDb2dVertex
 10
69.79436169045071
 20
-21.93216687819751
 30
0.0
  0
VERTEX
  5
58
330
4A
100
AcDbEntity
  8
LAYER_1
 62
    83
100
AcDbVertex
100
AcDb2dVertex
 10
68.715702294019
 20
-22.41585828432659
 30
0.0
  0
VERTEX
  5
59
330
4A
100
AcDbEntity
  8
LAYER_1
 62
    83
100
AcDbVertex
100
AcDb2dVertex
 10
67.56883000697933
 20
-22.66287163061901
 30
0.0
  0
VERTEX
  5
5A
330
4A
100
AcDbEntity
  8
LAYER_1
 62
    83
100
AcDbVertex
100
AcDb2dVertex
 10
66.39198538921798
 20
-22.66287163061901
 30
0.0
  0
VERTEX
  5
5B
330
4A
100
AcDbEntity
  8
LAYER_1
 62
    83
100
AcDbVertex
100
AcDb2dVertex
 10
65.24476859262978
 20
-22.41585828432659
 30
0.0
  0
VERTEX
  5
5C
330
4A
100
AcDbEntity
  8
LAYER_1
 62
    83
100
AcDbVertex
100
AcDb2dVertex
 10
64.16576468664954
 20
-21.93216687819751
 30
0.0
  0
VERTEX
  5
5D
330
4A
100
AcDbEntity
  8
LAYER_1
 62
    83
100
AcDbVertex
100
AcDb2dVertex
 10
63.21526284226911
 20
-21.24039170475935
 30
0.0
  0
VERTEX
  5
5E
330
4A
100
AcDbEntity
  8
LAYER_1
 62
    83
100
AcDbVertex
100
AcDb2dVertex
 10
62.42736950479247
 20
-20.36189235602064
 30
0.0
  0
VERTEX
  5
5F
330
4A
100
AcDbEntity
  8
LAYER_1
 62
    83
100
AcDbVertex
100
AcDb2dVertex
 10
61.84135876275147
 20
-19.33663193961029
 30
0.0
  0
VERTEX
  5
60
330
4A
100
AcDbEntity
  8
LAYER_1
 62
    83
100
AcDbVertex
100
AcDb2dVertex
 10
61.47686766041203
 20
-18.21180826367621
 30
0.0
  0
VERTEX
  5
61
330
4A
100
AcDbEntity
  8
LAYER_1
 62
    83
100
AcDbVertex
100
AcDb2dVertex
 10
61.35525578978272
 20
-17.03703070320602
 30
0.0
  0
VERTEX
  5
62
330
4A
100
AcDbEntity
  8
LAYER_1
 62
    83
100
AcDbVertex
100
AcDb2dVertex
 10
61.47686766041203
 20
-15.86087510454173
 30
0.0
  0
VERTEX
  5
63
330
4A
100
AcDbEntity
  8
LAYER_1
 62
    83
100
AcDbVertex
100
AcDb2dVertex
 10
61.84135876275147
 20
-14.73536240951061
 30
0.0
  0
VERTEX
  5
64
330
4A
100
AcDbEntity
  8
LAYER_1
 62
    83
100
AcDbVertex
100
AcDb2dVertex
 10
62.42736950479247
 20
-13.7135470885855
 30
0.0
  0
VERTEX
  5
65
330
4A
100
AcDbEntity
  8
LAYER_1
 62
    83
100
AcDbVertex
100
AcDb2dVertex
 10
63.21526284226911
 20
-12.83160264436154
 30
0.0
  0
VERTEX
  5
66
330
4A
100
AcDbEntity
  8
LAYER_1
 62
    83
100
AcDbVertex
100
AcDb2dVertex
 10
64.16576468664954
 20
-12.14086099956895
 30
0.0
  0
VERTEX
  5
67
330
4A
100
AcDbEntity
  8
LAYER_1
 62
    83
100
AcDbVertex
100
AcDb2dVertex
 10
65.24476859262978
 20
-11.65992566982808
 30
0.0
  0
VERTEX
  5
68
330
4A
100
AcDbEntity
  8
LAYER_1
 62
    83
100
AcDbVertex
100
AcDb2dVertex
 10
66.39198538921798
 20
-11.41291232353566
 30
0.0
  0
VERTEX
  5
69
330
4A
100
AcDbEntity
  8
LAYER_1
 62
    83
100
AcDbVertex
100
AcDb2dVertex
 10
67.56883000697933
 20
-11.41291232353566
 30
0.0
  0
SEQEND
  5
6A
330
4A
100
AcDbEntity
  8
LAYER_1
  0
POLYLINE
  5
6B
330
1F
100
AcDbEntity
  8
LAYER_1
 62
    83
100
AcDb2dPolyline
 66
     1
 10
0.0
 20
0.0
 30
0.0
  0
VERTEX
  5
6C
330
6B
100
AcDbEntity
  8
LAYER_1
 62
    83
100
AcDbVertex
100
AcDb2dVertex
 10
107.056514458913
 20
-9.930487736232656
 30
0.0
  0
VERTEX
  5
6D
330
6B
100
AcDbEntity
  8
LAYER_1
 62
    83
100
AcDbVertex
100
AcDb2dVertex
 10
26.90395642773582
 20
-9.930487736232656
 30
0.0
  0
VERTEX
  5
6E
330
6B
100
AcDbEntity
  8
LAYER_1
 62
    83
100
AcDbVertex
100
AcDb2dVertex
 10
26.90395642773582
 20
-96.68763832218227
 30
0.0
  0
VERTEX
  5
6F
330
6B
100
AcDbEntity
  8
LAYER_1
 62
    83
100
AcDbVertex
100
AcDb2dVertex
 10
27.01454399281234
 20
-97.72840166827623
 30
0.0
  0
VERTEX
  5
70
330
6B
100
AcDbEntity
  8
LAYER_1
 62
    83
100
AcDbVertex
100
AcDb2dVertex
 10
27.33700493023172
 20
-98.72506779215901
 30
0.0
  0
VERTEX
  5
71
330
6B
100
AcDbEntity
  8
LAYER_1
 62
    83
100
AcDbVertex
100
AcDb2dVertex
 10
27.86169297263527
 20
-99.63319496207087
 30
0.0
  0
VERTEX
  5
72
330
6B
100
AcDbEntity
  8
LAYER_1
 62
    83
100
AcDbVertex
100
AcDb2dVertex
 10
28.56208088478656
 20
-100.4104085035432
 30
0.0
  0
VERTEX
  5
73
330
6B
100
AcDbEntity
  8
LAYER_1
 62
    83
100
AcDbVertex
100
AcDb2dVertex
 10
29.40957437415802
 20
-101.0260470667574
 30
0.0
  0
VERTEX
  5
74
330
6B
100
AcDbEntity
  8
LAYER_1
 62
    83
100
AcDbVertex
100
AcDb2dVertex
 10
30.36593288086338
 20
-101.4535834164769
 30
0.0
  0
VERTEX
  5
75
330
6B
100
AcDbEntity
  8
LAYER_1
 62
    83
100
AcDbVertex
100
AcDb2dVertex
 10
31.3908487877252
 20
-101.6695909034021
 30
0.0
  0
VERTEX
  5
76
330
6B
100
AcDbEntity
  8
LAYER_1
 62
    83
100
AcDbVertex
100
AcDb2dVertex
 10
102.5699666084721
 20
-101.6695909034021
 30
0.0
  0
VERTEX
  5
77
330
6B
100
AcDbEntity
  8
LAYER_1
 62
    83
100
AcDbVertex
100
AcDb2dVertex
 10
103.5945380057854
 20
-101.4535834164769
 30
0.0
  0
VERTEX
  5
78
330
6B
100
AcDbEntity
  8
LAYER_1
 62
    83
100
AcDbVertex
100
AcDb2dVertex
 10
104.5508965124908
 20
-101.0260470667574
 30
0.0
  0
VERTEX
  5
79
330
6B
100
AcDbEntity
  8
LAYER_1
 62
    83
100
AcDbVertex
100
AcDb2dVertex
 10
105.3983900018622
 20
-100.4104085035432
 30
0.0
  0
VERTEX
  5
7A
330
6B
100
AcDbEntity
  8
LAYER_1
 62
    83
100
AcDbVertex
100
AcDb2dVertex
 10
106.099122423562
 20
-99.63319496207087
 30
0.0
  0
VERTEX
  5
7B
330
6B
100
AcDbEntity
  8
LAYER_1
 62
    83
100
AcDbVertex
100
AcDb2dVertex
 10
106.623465956417
 20
-98.72506779215901
 30
0.0
  0
VERTEX
  5
7C
330
6B
100
AcDbEntity
  8
LAYER_1
 62
    83
100
AcDbVertex
100
AcDb2dVertex
 10
106.9459268938364
 20
-97.72840166827623
 30
0.0
  0
VERTEX
  5
7D
330
6B
100
AcDbEntity
  8
LAYER_1
 62
    83
100
AcDbVertex
100
AcDb2dVertex
 10
107.056514458913
 20
-96.68763832218227
 30
0.0
  0
VERTEX
  5
7E
330
6B
100
AcDbEntity
  8
LAYER_1
 62
    83
100
AcDbVertex
100
AcDb2dVertex
 10
107.056514458913
 20
-9.930487736232656
 30
0.0
  0
SEQEND
  5
7F
330
6B
100
AcDbEntity
  8
LAYER_1
  0
SPLINE
  5
80
330
1F
100
AcDbEntity
  8
LAYER_1
100
AcDbSpline
210
0.0
220
0.0
230
1.0
 70
    11
 71
     3
 72
    29
 73
    25
 74
     0
 42
0.0000000001
 43
0.0000000001
 40
0.0
 40
0.0
 40
0.0
 40
0.0
 40
1.0
 40
1.0
 40
1.0
 40
2.0
 40
2.0
 40
2.0
 40
3.0
 40
3.0
 40
3.0
 40
4.0
 40
4.0
 40
4.0
 40
5.0
 40
5.0
 40
5.0
 40
6.0
 40
6.0
 40
6.0
 40
7.0
 40
7.0
 40
7.0
 40
8.0
 40
8.0
 40
8.0
 40
8.0
 10
113.7431002862344
 20
-97.27468259286883
 30
0.0
 10
113.7431002862344
 20
-97.21404891232844
 30
0.0
 10
113.7654934068885
 20
-97.16133895140412
 30
0.0
 10
113.8106241577453
 20
-97.11586369099882
 30
0.0
 10
113.8554103990535
 20
-97.070043921045
 30
0.0
 10
113.9070868313323
 20
-97.04765080039087
 30
0.0
 10
113.9666869832271
 20
-97.04765080039087
 30
0.0
 10
114.0249090969278
 20
-97.04765080039087
 30
0.0
 10
114.0745184719154
 20
-97.06935490194795
 30
0.0
 10
114.1141370699958
 20
-97.11207408596505
 30
0.0
 10
114.1544446871732
 20
-97.15479326998214
 30
0.0
 10
114.1751152600847
 20
-97.2081922500035
 30
0.0
 10
114.1751152600847
 20
-97.27330455467474
 30
0.0
 10
114.1751152600847
 20
-97.33876136889448
 30
0.0
 10
114.1534111585276
 20
-97.39250485846438
 30
0.0
 10
114.1110364840591
 20
-97.43660208067557
 30
0.0
 10
114.0686618095905
 20
-97.48069930288678
 30
0.0
 10
114.0180189059573
 20
-97.50309242354089
 30
0.0
 10
113.9584187540625
 20
-97.50309242354089
 30
0.0
 10
113.9001966403618
 20
-97.50309242354089
 30
0.0
 10
113.8492092271801
 20
-97.48069930288678
 30
0.0
 10
113.8068345527115
 20
-97.43591306157853
 30
0.0
 10
113.7648043877914
 20
-97.39009329162471
 30
0.0
 10
113.7431002862344
 20
-97.33634980205481
 30
0.0
 10
113.7431002862344
 20
-97.27468259286883
 30
0.0
  0
SPLINE
  5
81
330
1F
100
AcDbEntity
  8
LAYER_1
 62
   139
100
AcDbSpline
210
0.0
220
0.0
230
1.0
 70
    11
 71
     3
 72
    17
 73
    13
 74
     0
 42
0.0000000001
 43
0.0000000001
 40
0.0
 40
0.0
 40
0.0
 40
0.0
 40
1.0
 40
1.0
 40
1.0
 40
2.0
 40
2.0
 40
2.0
 40
3.0
 40
3.0
 40
3.0
 40
4.0
 40
4.0
 40
4.0
 40
4.0
 10
66.98040769809865
 20
-13.91232909808442
 30
0.0
 10
68.70605602666029
 20
-13.91232909808442
 30
0.0
 10
70.10510930322026
 20
-15.31138237464438
 30
0.0
 10
70.10510930322026
 20
-17.03703070320602
 30
0.0
 10
70.10510930322026
 20
-18.76302354131619
 30
0.0
 10
68.70605602666029
 20
-20.16207681787615
 30
0.0
 10
66.98040769809865
 20
-20.16207681787615
 30
0.0
 10
65.25441485998849
 20
-20.16207681787615
 30
0.0
 10
63.85536158342853
 20
-18.76302354131619
 30
0.0
 10
63.85536158342853
 20
-17.03703070320602
 30
0.0
 10
63.85536158342853
 20
-15.31138237464438
 30
0.0
 10
65.25441485998849
 20
-13.91232909808442
 30
0.0
 10
66.98040769809865
 20
-13.91232909808442
 30
0.0
  0
INSERT
  5
83
330
1F
100
AcDbEntity
  8
LAYER_1
100
AcDbBlockReference
  2
BLOCK_2
 10
0.0
 20
0.0
 30
0.0
  0
INSERT
  5
8C
330
1F
100
AcDbEntity
  8
LAYER_1
100
AcDbBlockReference
  2
BLOCK_4
 10
0.0
 20
0.0
 30
0.0
  0
INSERT
  5
95
330
1F
100
AcDbEntity
  8
LAYER_1
100
AcDbBlockReference
  2
BLOCK_6
 10
0.0
 20
0.0
 30
0.0
  0
INSERT
  5
9E
330
1F
100
AcDbEntity
  8
LAYER_1
100
AcDbBlockReference
  2
BLOCK_8
 10
0.0
 20
0.0
 30
0.0
  0
INSERT
  5
A7
330
1F
100
AcDbEntity
  8
LAYER_1
100
AcDbBlockReference
  2
BLOCK_10
 10
0.0
 20
0.0
 30
0.0
  0
INSERT
  5
B4
330
1F
100
AcDbEntity
  8
LAYER_1
100
AcDbBlockReference
  2
BLOCK_13
 10
0.0
 20
0.0
 30
0.0
  0
SPLINE
  5
BC
330
1F
100
AcDbEntity
  8
LAYER_1
 62
     1
100
AcDbSpline
210
0.0
220
0.0
230
1.0
 70
    11
 71
     3
 72
    92
 73
    88
 74
     0
 42
0.0000000001
 43
0.0000000001
 40
0.0
 40
0.0
 40
0.0
 40
0.0
 40
1.0
 40
1.0
 40
1.0
 40
2.0
 40
2.0
 40
2.0
 40
3.0
 40
3.0
 40
3.0
 40
4.0
 40
4.0
 40
4.0
 40
5.0
 40
5.0
 40
5.0
 40
6.0
 40
6.0
 40
6.0
 40
7.0
 40
7.0
 40
7.0
 40
8.0
 40
8.0
 40
8.0
 40
9.0
 40
9.0
 40
9.0
 40
10.0
 40
10.0
 40
10.0
 40
11.0
 40
11.0
 40
11.0
 40
12.0
 40
12.0
 40
12.0
 40
13.0
 40
13.0
 40
13.0
 40
14.0
 40
14.0
 40
14.0
 40
15.0
 40
15.0
 40
15.0
 40
16.0
 40
16.0
 40
16.0
 40
17.0
 40
17.0
 40
17.0
 40
18.0
 40
18.0
 40
18.0
 40
19.0
 40
19.0
 40
19.0
 40
20.0
 40
20.0
 40
20.0
 40
21.0
 40
21.0
 40
21.0
 40
22.0
 40
22.0
 40
22.0
 40
23.0
 40
23.0
 40
23.0
 40
24.0
 40
24.0
 40
24.0
 40
25.0
 40
25.0
 40
25.0
 40
26.0
 40
26.0
 40
26.0
 40
27.0
 40
27.0
 40
27.0
 40
28.0
 40
28.0
 40
28.0
 40
29.0
 40
29.0
 40
29.0
 40
29.0
 10
74.50191241627036
 20
-92.93282875280846
 30
0.0
 10
74.50191241627036
 20
-92.93282875280846
 30
0.0
 10
74.50191241627036
 20
-92.31305607501201
 30
0.0
 10
74.50191241627036
 20
-92.31305607501201
 30
0.0
 10
74.50191241627036
 20
-92.31305607501201
 30
0.0
 10
79.53812525138284
 20
-92.31305607501201
 30
0.0
 10
79.53812525138284
 20
-92.31305607501201
 30
0.0
 10
80.46795652285176
 20
-92.37937416310308
 30
0.0
 10
81.13199867763367
 20
-92.23536917181963
 30
0.0
 10
81.13199867763367
 20
-90.43134492096856
 30
0.0
 10
81.13199867763367
 20
-90.43134492096856
 30
0.0
 10
81.13199867763367
 20
-33.16300590533772
 30
0.0
 10
81.13199867763367
 20
-33.16300590533772
 30
0.0
 10
81.13199867763367
 20
-31.226000968756
 30
0.0
 10
81.13199867763367
 20
-29.3444620694868
 30
0.0
 10
79.28353269502287
 20
-29.3444620694868
 30
0.0
 10
79.28353269502287
 20
-29.3444620694868
 30
0.0
 10
74.02597247498309
 20
-29.3444620694868
 30
0.0
 10
74.02597247498309
 20
-29.3444620694868
 30
0.0
 10
74.02597247498309
 20
-29.3444620694868
 30
0.0
 10
74.02597247498309
 20
-27.17887504745875
 30
0.0
 10
74.02597247498309
 20
-27.17887504745875
 30
0.0
 10
74.02597247498309
 20
-27.17887504745875
 30
0.0
 10
74.02597247498309
 20
-27.16388888209792
 30
0.0
 10
74.02597247498309
 20
-27.16388888209792
 30
0.0
 10
74.02597247498309
 20
-27.16388888209792
 30
0.0
 10
62.83561331979458
 20
-27.16388888209792
 30
0.0
 10
62.83561331979458
 20
-27.16388888209792
 30
0.0
 10
62.83561331979458
 20
-27.16388888209792
 30
0.0
 10
62.83561331979458
 20
-29.3444620694868
 30
0.0
 10
62.83561331979458
 20
-29.3444620694868
 30
0.0
 10
62.83561331979458
 20
-29.3444620694868
 30
0.0
 10
53.51611326787098
 20
-29.3444620694868
 30
0.0
 10
53.51611326787098
 20
-29.3444620694868
 30
0.0
 10
52.81865368688214
 20
-29.3444620694868
 30
0.0
 10
52.15461153210024
 20
-30.05277370125417
 30
0.0
 10
52.15461153210024
 20
-31.4583726592361
 30
0.0
 10
52.15461153210024
 20
-31.4583726592361
 30
0.0
 10
52.15461153210024
 20
-35.89686142765773
 30
0.0
 10
52.15461153210024
 20
-35.89686142765773
 30
0.0
 10
52.15461153210024
 20
-35.89686142765773
 30
0.0
 10
51.51261798842393
 20
-35.89686142765773
 30
0.0
 10
51.51261798842393
 20
-35.89686142765773
 30
0.0
 10
51.51261798842393
 20
-35.89686142765773
 30
0.0
 10
51.51261798842393
 20
-46.50052082170821
 30
0.0
 10
51.51261798842393
 20
-46.50052082170821
 30
0.0
 10
51.51261798842393
 20
-46.50052082170821
 30
0.0
 10
52.15461153210024
 20
-46.50052082170821
 30
0.0
 10
52.15461153210024
 20
-46.50052082170821
 30
0.0
 10
52.15461153210024
 20
-46.50052082170821
 30
0.0
 10
52.15461153210024
 20
-65.87039793275116
 30
0.0
 10
52.15461153210024
 20
-65.87039793275116
 30
0.0
 10
52.15461153210024
 20
-65.87039793275116
 30
0.0
 10
50.93711478761295
 20
-65.87039793275116
 30
0.0
 10
50.93711478761295
 20
-65.87039793275116
 30
0.0
 10
50.93711478761295
 20
-65.87039793275116
 30
0.0
 10
50.93711478761295
 20
-72.86549206077669
 30
0.0
 10
50.93711478761295
 20
-72.86549206077669
 30
0.0
 10
50.93711478761295
 20
-72.86549206077669
 30
0.0
 10
52.15461153210024
 20
-72.86549206077669
 30
0.0
 10
52.15461153210024
 20
-72.86549206077669
 30
0.0
 10
52.15461153210024
 20
-72.86549206077669
 30
0.0
 10
52.15461153210024
 20
-78.22278779511444
 30
0.0
 10
52.15461153210024
 20
-78.22278779511444
 30
0.0
 10
52.15461153210024
 20
-78.22278779511444
 30
0.0
 10
50.89267305585322
 20
-78.22278779511444
 30
0.0
 10
50.89267305585322
 20
-78.22278779511444
 30
0.0
 10
50.89267305585322
 20
-78.22278779511444
 30
0.0
 10
50.89267305585322
 20
-85.2182264326885
 30
0.0
 10
50.89267305585322
 20
-85.2182264326885
 30
0.0
 10
50.89267305585322
 20
-85.2182264326885
 30
0.0
 10
52.15461153210024
 20
-85.2182264326885
 30
0.0
 10
52.15461153210024
 20
-85.2182264326885
 30
0.0
 10
52.15461153210024
 20
-85.2182264326885
 30
0.0
 10
52.15461153210024
 20
-90.43134492096856
 30
0.0
 10
52.15461153210024
 20
-90.43134492096856
 30
0.0
 10
52.15461153210024
 20
-92.19127194960843
 30
0.0
 10
52.78558077022375
 20
-92.31305607501201
 30
0.0
 10
54.18015542265288
 20
-92.31305607501201
 30
0.0
 10
54.18015542265288
 20
-92.31305607501201
 30
0.0
 10
58.78469779346355
 20
-92.31305607501201
 30
0.0
 10
58.78469779346355
 20
-92.31305607501201
 30
0.0
 10
58.78469779346355
 20
-92.31305607501201
 30
0.0
 10
58.78469779346355
 20
-92.93282875280846
 30
0.0
 10
58.78469779346355
 20
-92.93282875280846
 30
0.0
 10
58.78469779346355
 20
-92.93282875280846
 30
0.0
 10
74.50191241627036
 20
-92.93282875280846
 30
0.0
 10
74.50191241627036
 20
-92.93282875280846
 30
0.0
  0
ENDSEC
  0
SECTION
  2
OBJECTS
  0
DICTIONARY
  5
C
330
0
100
AcDbDictionary
  3
ACAD_GROUP
350
D
  3
ACAD_LAYOUT
350
1A
  3
ACAD_MLINESTYLE
350
17
  3
ACAD_PLOTSETTINGS
350
19
  3
ACAD_TABLESTYLE
350
DD
  3
ACAD_VISUALSTYLE
350
2A
  3
ACDBHEADERROUNDTRIPXREC
350
BD
  0
DICTIONARY
  5
D
102
{ACAD_REACTORS
330
C
102
}
330
C
100
AcDbDictionary
  0
DICTIONARY
  5
1A
102
{ACAD_REACTORS
330
C
102
}
330
C
100
AcDbDictionary
  0
DICTIONARY
  5
17
102
{ACAD_REACTORS
330
C
102
}
330
C
100
AcDbDictionary
  3
STANDARD
350
18
  0
DICTIONARY
  5
19
102
{ACAD_REACTORS
330
C
102
}
330
C
100
AcDbDictionary
  0
DICTIONARY
  5
DD
102
{ACAD_REACTORS
330
C
102
}
330
C
100
AcDbDictionary
  0
DICTIONARY
  5
2A
102
{ACAD_REACTORS
330
C
102
}
330
C
100
AcDbDictionary
  3
2DWIREFRAME
350
2F
  3
3DWIREFRAME
350
30
  3
3D_HIDDEN
350
31
  3
BASIC
350
32
  3
BRIGHTEN
350
36
  3
COLORCHANGE
350
3A
  3
CONCEPTUAL
350
34
  3
DIM
350
35
  3
FACEPATTERN
350
39
  3
FLAT
350
2B
  3
FLATWITHEDGES
350
2C
  3
GOURAUD
350
2D
  3
GOURAUDWITHEDGES
350
2E
  3
LINEPATTERN
350
38
  3
REALISTIC
350
33
  3
THICKEN
350
37
  0
DICTIONARY
  5
BD
102
{ACAD_REACTORS
330
C
102
}
330
C
100
AcDbDictionary
  3
CEPSNTYPE
350
C6
  3
DIMSTYLEDATA
350
DC
  3
FINGERPRINTGUID
350
C7
  3
HYPERLINKBASE
350
C0
  3
INSUNITS
350
C5
  3
LAYOUTDICT
350
C2
  3
LWETCUNION
350
C4
  3
PLOTSETDICT
350
C3
  3
PSVPSCALE
350
C9
  3
PUCSBASE
350
CC
  3
PUCSORGBACK
350
D2
  3
PUCSORGBOTTOM
350
CE
  3
PUCSORGFRONT
350
D1
  3
PUCSORGLEFT
350
CF
  3
PUCSORGRIGHT
350
D0
  3
PUCSORGTOP
350
CD
  3
PUCSORTHOREF
350
CA
  3
PUCSORTHOVIEW
350
CB
  3
STYLESHEET
350
C1
  3
TSTACKALIGN
350
BE
  3
TSTACKSIZE
350
BF
  3
UCSBASE
350
D5
  3
UCSORGBACK
350
DB
  3
UCSORGBOTTOM
350
D7
  3
UCSORGFRONT
350
DA
  3
UCSORGLEFT
350
D8
  3
UCSORGRIGHT
350
D9
  3
UCSORGTOP
350
D6
  3
UCSORTHOREF
350
D3
  3
UCSORTHOVIEW
350
D4
  3
VERSIONGUID
350
C8
  0
MLINESTYLE
  5
18
102
{ACAD_REACTORS
330
17
102
}
330
17
100
AcDbMlineStyle
  2
Standard
 70
     0
  3

 62
   256
 51
90.0
 52
90.0
 71
     2
 49
0.5
 62
   256
  6
BYLAYER
 49
-0.5
 62
   256
  6
BYLAYER
  0
VISUALSTYLE
  5
2F
102
{ACAD_REACTORS
330
2A
102
}
330
2A
100
AcDbVisualStyle
  2
2dWireframe
 70
     4
 71
     0
 72
     2
 73
     0
 90
        0
 40
-0.6
 41
-30.0
 62
     5
 63
     7
 74
     1
 91
        4
 64
     7
 65
   257
 75
     1
175
     1
 42
1.0
 92
        0
 66
   257
 43
1.0
 76
     1
 77
     6
 78
     2
 67
     7
 79
     5
170
     0
171
     0
290
     0
174
     0
 93
        1
 44
0.0
173
     0
291
     0
 45
0.0
1001
ACAD
1000
AcDbSavedByObjectVersion
1070
     0
  0
VISUALSTYLE
  5
30
102
{ACAD_REACTORS
330
2A
102
}
330
2A
100
AcDbVisualStyle
  2
3dWireframe
 70
     5
 71
     0
 72
     2
 73
     0
 90
        0
 40
-0.6
 41
-30.0
 62
     5
 63
     7
 74
     1
 91
        4
 64
     7
 65
   257
 75
     1
175
     1
 42
1.0
 92
        0
 66
   257
 43
1.0
 76
     1
 77
     6
 78
     2
 67
     7
 79
     5
170
     0
171
     0
290
     0
174
     0
 93
        1
 44
0.0
173
     0
291
     0
 45
0.0
1001
ACAD
1000
AcDbSavedByObjectVersion
1070
     0
  0
VISUALSTYLE
  5
31
102
{ACAD_REACTORS
330
2A
102
}
330
2A
100
AcDbVisualStyle
  2
3D Hidden
 70
     6
 71
     1
 72
     2
 73
     2
 90
        0
 40
-0.6
 41
-30.0
 62
     5
 63
     7
 74
     2
 91
        2
 64
     7
 65
   257
 75
     2
175
     1
 42
40.0
 92
        0
 66
   257
 43
1.0
 76
     1
 77
     6
 78
     2
 67
     7
 79
     3
170
     0
171
     0
290
     0
174
     0
 93
        1
 44
0.0
173
     0
291
     0
 45
0.0
1001
ACAD
1000
AcDbSavedByObjectVersion
1070
     0
  0
VISUALSTYLE
  5
32
102
{ACAD_REACTORS
330
2A
102
}
330
2A
100
AcDbVisualStyle
  2
Basic
 70
     7
 71
     1
 72
     0
 73
     1
 90
        0
 40
-0.6
 41
-30.0
 62
     5
 63
     7
 74
     0
 91
        4
 64
     7
 65
   257
 75
     1
175
     1
 42
1.0
 92
        8
 66
     7
 43
1.0
 76
     1
 77
     6
 78
     2
 67
     7
 79
     5
170
     0
171
     0
290
     0
174
     0
 93
        1
 44
0.0
173
     0
291
     1
 45
0.0
1001
ACAD
1000
AcDbSavedByObjectVersion
1070
     0
  0
VISUALSTYLE
  5
36
102
{ACAD_REACTORS
330
2A
102
}
330
2A
100
AcDbVisualStyle
  2
Brighten
 70
    12
 71
     2
 72
     2
 73
     0
 90
        0
 40
-0.6
 41
-30.0
 62
     5
 63
     7
 74
     1
 91
        4
 64
     7
 65
   257
 75
     1
175
     1
 42
1.0
 92
        8
 66
     7
 43
1.0
 76
     1
 77
     6
 78
     2
 67
     7
 79
     5
170
     0
171
     0
290
     0
174
     0
 93
        1
 44
50.0
173
     0
291
     1
 45
0.0
1001
ACAD
1000
AcDbSavedByObjectVersion
1070
     0
  0
VISUALSTYLE
  5
3A
102
{ACAD_REACTORS
330
2A
102
}
330
2A
100
AcDbVisualStyle
  2
ColorChange
 70
    16
 71
     2
 72
     2
 73
     3
 90
        0
 40
-0.6
 41
-30.0
 62
     5
 63
     8
 74
     1
 91
        4
 64
     7
 65
   257
 75
     1
175
     1
 42
1.0
 92
        8
 66
     8
 43
1.0
 76
     1
 77
     6
 78
     2
 67
     7
 79
     5
170
     0
171
     0
290
     0
174
     0
 93
        1
 44
0.0
173
     0
291
     1
 45
0.0
1001
ACAD
1000
AcDbSavedByObjectVersion
1070
     0
  0
VISUALSTYLE
  5
34
102
{ACAD_REACTORS
330
2A
102
}
330
2A
100
AcDbVisualStyle
  2
Conceptual
 70
     9
 71
     3
 72
     2
 73
     0
 90
        0
 40
-0.6
 41
-30.0
 62
     5
 63
     7
 74
     2
 91
        2
 64
     7
 65
   257
 75
     1
175
     1
 42
40.0
 92
        8
 66
     7
 43
1.0
 76
     1
 77
     6
 78
     2
 67
     7
 79
     3
170
     0
171
     0
290
     0
174
     0
 93
        1
 44
0.0
173
     0
291
     0
 45
0.0
1001
ACAD
1000
AcDbSavedByObjectVersion
1070
     0
  0
VISUALSTYLE
  5
35
102
{ACAD_REACTORS
330
2A
102
}
330
2A
100
AcDbVisualStyle
  2
Dim
 70
    11
 71
     2
 72
     2
 73
     0
 90
        0
 40
-0.6
 41
-30.0
 62
     5
 63
     7
 74
     1
 91
        4
 64
     7
 65
   257
 75
     1
175
     1
 42
1.0
 92
        8
 66
     7
 43
1.0
 76
     1
 77
     6
 78
     2
 67
     7
 79
     5
170
     0
171
     0
290
     0
174
     0
 93
        1
 44
-50.0
173
     0
291
     1
 45
0.0
1001
ACAD
1000
AcDbSavedByObjectVersion
1070
     0
  0
VISUALSTYLE
  5
39
102
{ACAD_REACTORS
330
2A
102
}
330
2A
100
AcDbVisualStyle
  2
Facepattern
 70
    15
 71
     2
 72
     2
 73
     0
 90
        0
 40
-0.6
 41
-30.0
 62
     5
 63
     7
 74
     1
 91
        4
 64
     7
 65
   257
 75
     1
175
     1
 42
1.0
 92
        8
 66
     7
 43
1.0
 76
     1
 77
     6
 78
     2
 67
     7
 79
     5
170
     0
171
     0
290
     0
174
     0
 93
        1
 44
0.0
173
     0
291
     1
 45
0.0
1001
ACAD
1000
AcDbSavedByObjectVersion
1070
     0
  0
VISUALSTYLE
  5
2B
102
{ACAD_REACTORS
330
2A
102
}
330
2A
100
AcDbVisualStyle
  2
Flat
 70
     0
 71
     2
 72
     1
 73
     1
 90
        2
 40
-0.6
 41
30.0
 62
     5
 63
     7
 74
     0
 91
        4
 64
     7
 65
   257
 75
     1
175
     1
 42
1.0
 92
        8
 66
     7
 43
1.0
 76
     1
 77
     6
 78
     2
 67
     7
 79
     5
170
     0
171
     0
290
     0
174
     0
 93
       13
 44
0.0
173
     0
291
     1
 45
0.0
1001
ACAD
1000
AcDbSavedByObjectVersion
1070
     0
  0
VISUALSTYLE
  5
2C
102
{ACAD_REACTORS
330
2A
102
}
330
2A
100
AcDbVisualStyle
  2
FlatWithEdges
 70
     1
 71
     2
 72
     1
 73
     1
 90
        2
 40
-0.6
 41
30.0
 62
     5
 63
     7
 74
     1
 91
        4
 64
     7
 65
   257
 75
     1
175
     1
 42
1.0
 92
        0
 66
   257
 43
1.0
 76
     1
 77
     6
 78
     2
 67
     7
 79
     5
170
     0
171
     0
290
     0
174
     0
 93
       13
 44
0.0
173
     0
291
     1
 45
0.0
1001
ACAD
1000
AcDbSavedByObjectVersion
1070
     0
  0
VISUALSTYLE
  5
2D
102
{ACAD_REACTORS
330
2A
102
}
330
2A
100
AcDbVisualStyle
  2
Gouraud
 70
     2
 71
     2
 72
     2
 73
     1
 90
        2
 40
-0.6
 41
30.0
 62
     5
 63
     7
 74
     0
 91
        4
 64
     7
 65
   257
 75
     1
175
     1
 42
1.0
 92
        0
 66
     7
 43
1.0
 76
     1
 77
     6
 78
     2
 67
     7
 79
     5
170
     0
171
     0
290
     0
174
     0
 93
       13
 44
0.0
173
     0
291
     1
 45
0.0
1001
ACAD
1000
AcDbSavedByObjectVersion
1070
     0
  0
VISUALSTYLE
  5
2E
102
{ACAD_REACTORS
330
2A
102
}
330
2A
100
AcDbVisualStyle
  2
GouraudWithEdges
 70
     3
 71
     2
 72
     2
 73
     1
 90
        2
 40
-0.6
 41
30.0
 62
     5
 63
     7
 74
     1
 91
        4
 64
     7
 65
   257
 75
     1
175
     1
 42
1.0
 92
        0
 66
   257
 43
1.0
 76
     1
 77
     6
 78
     2
 67
     7
 79
     5
170
     0
171
     0
290
     0
174
     0
 93
       13
 44
0.0
173
     0
291
     1
 45
0.0
1001
ACAD
1000
AcDbSavedByObjectVersion
1070
     0
  0
VISUALSTYLE
  5
38
102
{ACAD_REACTORS
330
2A
102
}
330
2A
100
AcDbVisualStyle
  2
Linepattern
 70
    14
 71
     2
 72
     2
 73
     0
 90
        0
 40
-0.6
 41
-30.0
 62
     5
 63
     7
 74
     1
 91
        4
 64
     7
 65
   257
 75
     7
175
     7
 42
1.0
 92
        8
 66
     7
 43
1.0
 76
     1
 77
     6
 78
     2
 67
     7
 79
     5
170
     0
171
     0
290
     0
174
     0
 93
        1
 44
0.0
173
     0
291
     1
 45
0.0
1001
ACAD
1000
AcDbSavedByObjectVersion
1070
     0
  0
VISUALSTYLE
  5
33
102
{ACAD_REACTORS
330
2A
102
}
330
2A
100
AcDbVisualStyle
  2
Realistic
 70
     8
 71
     2
 72
     2
 73
     0
 90
        0
 40
-0.6
 41
-30.0
 62
     5
 63
     7
 74
     1
 91
        0
 64
     7
 65
   257
 75
     1
175
     1
 42
1.0
 92
        8
 66
     8
 43
1.0
 76
     1
 77
     6
 78
     2
 67
     7
 79
     5
170
     0
171
     0
290
     0
174
     0
 93
       13
 44
0.0
173
     0
291
     0
 45
0.0
1001
ACAD
1000
AcDbSavedByObjectVersion
1070
     0
  0
VISUALSTYLE
  5
37
102
{ACAD_REACTORS
330
2A
102
}
330
2A
100
AcDbVisualStyle
  2
Thicken
 70
    13
 71
     2
 72
     2
 73
     0
 90
        0
 40
-0.6
 41
-30.0
 62
     5
 63
     7
 74
     1
 91
        4
 64
     7
 65
   257
 75
     1
175
     1
 42
1.0
 92
       12
 66
     7
 43
1.0
 76
     1
 77
     6
 78
     2
 67
     7
 79
     5
170
     0
171
     0
290
     0
174
     0
 93
        1
 44
0.0
173
     0
291
     1
 45
0.0
1001
ACAD
1000
AcDbSavedByObjectVersion
1070
     0
  0
XRECORD
  5
C6
102
{ACAD_REACTORS
330
BD
102
}
330
BD
100
AcDbXrecord
 90
        0
  0
XRECORD
  5
DC
102
{ACAD_REACTORS
330
BD
102
}
330
BD
100
AcDbXrecord
1000
DSTYLE
1002
{
1070
   340
340
11
1002
}
  0
XRECORD
  5
C7
102
{ACAD_REACTORS
330
BD
102
}
330
BD
100
AcDbXrecord
  1
{B278CD45-8995-E57C-25E1-498A11D74689}
  0
XRECORD
  5
C0
102
{ACAD_REACTORS
330
BD
102
}
330
BD
100
AcDbXrecord
  1

  0
XRECORD
  5
C5
102
{ACAD_REACTORS
330
BD
102
}
330
BD
100
AcDbXrecord
 90
        1
  0
XRECORD
  5
C2
102
{ACAD_REACTORS
330
BD
102
}
330
BD
100
AcDbXrecord
340
1A
  0
XRECORD
  5
C4
102
{ACAD_REACTORS
330
BD
102
}
330
BD
100
AcDbXrecord
 90
    10269
  0
XRECORD
  5
C3
102
{ACAD_REACTORS
330
BD
102
}
330
BD
100
AcDbXrecord
340
19
  0
XRECORD
  5
C9
102
{ACAD_REACTORS
330
BD
102
}
330
BD
100
AcDbXrecord
 40
0.0
  0
XRECORD
  5
CC
102
{ACAD_REACTORS
330
BD
102
}
330
BD
100
AcDbXrecord
340
0
  0
XRECORD
  5
D2
102
{ACAD_REACTORS
330
BD
102
}
330
BD
100
AcDbXrecord
 10
0.0
 20
0.0
 30
0.0
  0
XRECORD
  5
CE
102
{ACAD_REACTORS
330
BD
102
}
330
BD
100
AcDbXrecord
 10
0.0
 20
0.0
 30
0.0
  0
XRECORD
  5
D1
102
{ACAD_REACTORS
330
BD
102
}
330
BD
100
AcDbXrecord
 10
0.0
 20
0.0
 30
0.0
  0
XRECORD
  5
CF
102
{ACAD_REACTORS
330
BD
102
}
330
BD
100
AcDbXrecord
 10
0.0
 20
0.0
 30
0.0
  0
XRECORD
  5
D0
102
{ACAD_REACTORS
330
BD
102
}
330
BD
100
AcDbXrecord
 10
0.0
 20
0.0
 30
0.0
  0
XRECORD
  5
CD
102
{ACAD_REACTORS
330
BD
102
}
330
BD
100
AcDbXrecord
 10
0.0
 20
0.0
 30
0.0
  0
XRECORD
  5
CA
102
{ACAD_REACTORS
330
BD
102
}
330
BD
100
AcDbXrecord
340
0
  0
XRECORD
  5
CB
102
{ACAD_REACTORS
330
BD
102
}
330
BD
100
AcDbXrecord
 70
     0
  0
XRECORD
  5
C1
102
{ACAD_REACTORS
330
BD
102
}
330
BD
100
AcDbXrecord
  1

  0
XRECORD
  5
BE
102
{ACAD_REACTORS
330
BD
102
}
330
BD
100
AcDbXrecord
 90
        1
  0
XRECORD
  5
BF
102
{ACAD_REACTORS
330
BD
102
}
330
BD
100
AcDbXrecord
 90
       70
  0
XRECORD
  5
D5
102
{ACAD_REACTORS
330
BD
102
}
330
BD
100
AcDbXrecord
340
0
  0
XRECORD
  5
DB
102
{ACAD_REACTORS
330
BD
102
}
330
BD
100
AcDbXrecord
 10
0.0
 20
0.0
 30
0.0
  0
XRECORD
  5
D7
102
{ACAD_REACTORS
330
BD
102
}
330
BD
100
AcDbXrecord
 10
0.0
 20
0.0
 30
0.0
  0
XRECORD
  5
DA
102
{ACAD_REACTORS
330
BD
102
}
330
BD
100
AcDbXrecord
 10
0.0
 20
0.0
 30
0.0
  0
XRECORD
  5
D8
102
{ACAD_REACTORS
330
BD
102
}
330
BD
100
AcDbXrecord
 10
0.0
 20
0.0
 30
0.0
  0
XRECORD
  5
D9
102
{ACAD_REACTORS
330
BD
102
}
330
BD
100
AcDbXrecord
 10
0.0
 20
0.0
 30
0.0
  0
XRECORD
  5
D6
102
{ACAD_REACTORS
330
BD
102
}
330
BD
100
AcDbXrecord
 10
0.0
 20
0.0
 30
0.0
  0
XRECORD
  5
D3
102
{ACAD_REACTORS
330
BD
102
}
330
BD
100
AcDbXrecord
340
0
  0
XRECORD
  5
D4
102
{ACAD_REACTORS
330
BD
102
}
330
BD
100
AcDbXrecord
 70
     0
  0
XRECORD
  5
C8
102
{ACAD_REACTORS
330
BD
102
}
330
BD
100
AcDbXrecord
  1
{FAEB1C32-E019-11D5-929B-00C0DF256EC4}
  0
ENDSEC
  0
EOF
